<svg xmlns="http://www.w3.org/2000/svg"  viewBox="0 0 100 100" width="100px" height="100px" baseProfile="basic"><path fill="#31c4f3" d="M30.64,36.275c7.042-8.542,10.948-13.279,17.99-13.279c12.764,0,16.07,9.906,24.867,16.413 C77,42,86.98,44.818,90.501,36.275C86.98,48.021,79.938,53.36,72.895,53.36C67.722,53.36,61,48,54.849,41.08 C47.267,32.552,34.162,32.004,30.64,36.275z"/><path fill="#31c4f3" d="M9.499,59.919c7.042-8.542,10.948-13.279,17.99-13.279c12.764,0,16.359,9.532,24.867,16.413 C56,66,65.838,68.461,69.36,59.919c-3.521,11.746-10.564,17.084-17.606,17.084C46.581,77.004,40,72,33.707,64.724 C26.243,56.093,13.02,55.648,9.499,59.919z"/><path fill="#1f212b" d="M72.895,54.359c-6.265,0-13.678-6.86-18.794-12.615c-4.756-5.35-11.458-7.193-16.122-7.077 c-2.998,0.056-5.452,0.894-6.565,2.242c0,0,0,0-0.001,0.001c-0.352,0.427-0.982,0.487-1.408,0.136 c-0.426-0.351-0.488-0.98-0.136-1.406c0.001-0.003,0.003-0.005,0.005-0.007c7.011-8.504,11.245-13.637,18.757-13.637 c9.158,0,13.657,4.833,18.42,9.951c2.129,2.287,4.331,4.652,7.042,6.658c2.023,1.495,6.572,3.132,10.357,2.076 c2.364-0.657,4.089-2.269,5.127-4.787c0.203-0.492,0.759-0.738,1.259-0.562c0.502,0.179,0.776,0.719,0.624,1.229 C88.118,47.706,81.178,54.359,72.895,54.359z M38.293,32.664c5.1,0,12.213,2.026,17.303,7.752 c6.846,7.702,12.99,11.943,17.299,11.943c5.891,0,11.058-3.931,14.46-10.767c-0.726,0.438-1.517,0.779-2.369,1.016 c-4.685,1.304-9.897-0.778-12.083-2.396c-2.86-2.115-5.125-4.55-7.316-6.903c-4.651-4.998-8.668-9.313-16.956-9.313 c-5.472,0-9.01,3.182-14.004,9.055c1.014-0.23,2.128-0.361,3.315-0.383C38.058,32.665,38.175,32.664,38.293,32.664z"/><path fill="#1f212b" d="M51.753,78.004c-5.083,0-11.761-4.483-18.803-12.625c-4.598-5.317-11.242-7.159-15.893-7.098 c-3.105,0.036-5.642,0.886-6.787,2.272c0,0-0.001,0.001-0.001,0.001l0,0c-0.352,0.428-0.98,0.487-1.408,0.136 c-0.426-0.352-0.487-0.981-0.135-1.407l0,0c0.001-0.002,0.003-0.004,0.004-0.006c7.011-8.504,11.245-13.637,18.757-13.637 c9.493,0,14.151,5.034,19.084,10.363c1.964,2.123,3.996,4.317,6.412,6.271c2.183,1.766,6.437,3.152,10.016,2.235 c2.51-0.641,4.338-2.313,5.435-4.973c0.204-0.493,0.759-0.74,1.259-0.562c0.502,0.179,0.776,0.719,0.624,1.229 C66.977,71.351,60.037,78.004,51.753,78.004z M17.257,56.279c5.104,0,12.233,2.04,17.207,7.791 c6.656,7.695,12.797,11.934,17.29,11.934c5.864,0,11.011-3.895,14.414-10.675c-0.812,0.497-1.705,0.873-2.671,1.119 c-4.258,1.089-9.144-0.494-11.769-2.618c-2.528-2.044-4.609-4.293-6.622-6.468c-4.828-5.217-8.998-9.722-17.616-9.722 c-5.467,0-9.004,3.176-13.991,9.038c1.076-0.247,2.266-0.383,3.537-0.397C17.108,56.28,17.183,56.279,17.257,56.279z"/><path d="M59.424,69.567c-4.122,0-8.357-2.487-10.382-4.126c-2.181-1.764-4.185-3.977-6.124-6.116C38.575,54.529,34.473,50,28.5,50 c-0.276,0-0.5-0.224-0.5-0.5s0.224-0.5,0.5-0.5c6.416,0,10.861,4.907,15.159,9.653c1.913,2.112,3.891,4.296,6.011,6.011 c2.148,1.737,6.905,4.494,11.123,3.794c0.271-0.049,0.529,0.14,0.575,0.411c0.045,0.272-0.139,0.53-0.412,0.575 C60.451,69.528,59.938,69.567,59.424,69.567z"/><path d="M19.5,53c-0.162,0-0.32-0.078-0.417-0.223c-0.153-0.229-0.091-0.54,0.139-0.693c2.513-1.676,4.26-2.59,6.836-2.935 c0.273-0.045,0.525,0.155,0.562,0.429s-0.155,0.525-0.429,0.562c-2.381,0.319-4.028,1.186-6.414,2.776 C19.692,52.973,19.596,53,19.5,53z"/><path d="M80.924,46.067c-4.122,0-8.357-2.487-10.382-4.126c-2.181-1.764-4.185-3.977-6.124-6.116 C60.075,31.029,55.973,26.5,50,26.5c-0.276,0-0.5-0.224-0.5-0.5s0.224-0.5,0.5-0.5c6.416,0,10.861,4.907,15.159,9.653 c1.913,2.112,3.891,4.296,6.011,6.011c2.148,1.737,6.907,4.487,11.123,3.794c0.273-0.053,0.53,0.14,0.575,0.411 c0.045,0.272-0.139,0.53-0.412,0.575C81.951,46.028,81.438,46.067,80.924,46.067z"/><path d="M41,29.5c-0.162,0-0.32-0.078-0.417-0.223c-0.153-0.229-0.091-0.54,0.139-0.693c2.24-1.493,3.869-2.383,6.057-2.809 c0.273-0.046,0.534,0.125,0.586,0.396c0.053,0.271-0.125,0.534-0.396,0.587c-2.022,0.393-3.561,1.237-5.693,2.658 C41.192,29.473,41.096,29.5,41,29.5z"/></svg>